<mxfile host="app.diagrams.net" modified="2023-02-21T15:47:33.569Z" agent="5.0 (Windows)" etag="1GgiyBZhnqIzbnHz1OMF" version="20.8.21" type="github">
  <diagram name="PÃ¡gina-1" id="ZbKE33pjYP4WRVqHZEZ_">
    <mxGraphModel dx="1050" dy="566" grid="1" gridSize="10" guides="1" tooltips="1" connect="1" arrows="1" fold="1" page="1" pageScale="1" pageWidth="827" pageHeight="1169" math="0" shadow="0">
      <root>
        <mxCell id="0" />
        <mxCell id="1" parent="0" />
        <mxCell id="zHMyodJ6mRCV18DWSe0d-2" value="" style="rounded=1;whiteSpace=wrap;html=1;" vertex="1" parent="1">
          <mxGeometry x="200" y="80" width="480" height="330" as="geometry" />
        </mxCell>
        <mxCell id="zHMyodJ6mRCV18DWSe0d-3" value="&lt;h1&gt;Txipiron Client&lt;br&gt;&lt;/h1&gt;" style="text;html=1;strokeColor=none;fillColor=none;spacing=5;spacingTop=-20;whiteSpace=wrap;overflow=hidden;rounded=0;align=center;" vertex="1" parent="1">
          <mxGeometry x="230" y="100" width="420" height="70" as="geometry" />
        </mxCell>
        <mxCell id="zHMyodJ6mRCV18DWSe0d-4" value="" style="shape=image;html=1;verticalAlign=top;verticalLabelPosition=bottom;labelBackgroundColor=#ffffff;imageAspect=0;aspect=fixed;image=https://cdn1.iconfinder.com/data/icons/sea-24/32/Artboard_10sea-128.png;fontSize=16;" vertex="1" parent="1">
          <mxGeometry x="376" y="142" width="128" height="128" as="geometry" />
        </mxCell>
        <mxCell id="zHMyodJ6mRCV18DWSe0d-6" value="Select an account to change to from the list" style="text;html=1;strokeColor=none;fillColor=none;align=center;verticalAlign=middle;whiteSpace=wrap;rounded=0;fontSize=17;" vertex="1" parent="1">
          <mxGeometry x="245" y="270" width="390" height="30" as="geometry" />
        </mxCell>
        <mxCell id="zHMyodJ6mRCV18DWSe0d-7" value="Swap Account" style="rounded=1;whiteSpace=wrap;html=1;fontSize=16;" vertex="1" parent="1">
          <mxGeometry x="367.5" y="360" width="145" height="30" as="geometry" />
        </mxCell>
        <mxCell id="zHMyodJ6mRCV18DWSe0d-11" value="&lt;div&gt;Account 1 - NAME - 20 Followers - 40 Following&lt;/div&gt;" style="rounded=1;fillColor=#F1F2F4;strokeColor=none;html=1;fontColor=#596780;align=left;fontSize=12;spacingLeft=10;sketch=0;" vertex="1" parent="1">
          <mxGeometry x="254.5" y="310" width="371" height="33" as="geometry" />
        </mxCell>
        <mxCell id="zHMyodJ6mRCV18DWSe0d-12" value="" style="shape=triangle;direction=south;fillColor=#596780;strokeColor=none;html=1;sketch=0;fontSize=17;" vertex="1" parent="zHMyodJ6mRCV18DWSe0d-11">
          <mxGeometry x="1" y="0.5" width="12" height="6" relative="1" as="geometry">
            <mxPoint x="-20" y="-3" as="offset" />
          </mxGeometry>
        </mxCell>
      </root>
    </mxGraphModel>
  </diagram>
</mxfile>
